<?xml version="1.0" encoding="utf-8"?>
<!-- Generator: Adobe Illustrator 27.0.0, SVG Export Plug-In . SVG Version: 6.00 Build 0)  -->
<svg version="1.1" id="Layer_1" xmlns="http://www.w3.org/2000/svg" xmlns:xlink="http://www.w3.org/1999/xlink" x="0px" y="0px"
	 viewBox="0 0 595.28 841.89" style="enable-background:new 0 0 595.28 841.89;" xml:space="preserve">
<style type="text/css">
	.st0{fill:#FFFFFF;}
</style>
<g>
	<path class="st0" d="M452.99,453.47c-13.4,0-26.19,0.05-38.99-0.02c-4.96-0.03-11.24,1.44-14.51-1c-3.25-2.43-3.66-8.86-5.01-13.62
		c-8.06-28.28-16.12-56.56-23.92-84.91c-1.16-4.21-3.05-5.43-7.25-5.42c-43.33,0.13-86.65,0.15-129.98-0.02
		c-4.58-0.02-6.33,1.67-7.47,5.86c-8.57,31.42-17.42,62.76-25.98,94.17c-1.01,3.69-2.45,5.11-6.4,5.05
		c-14.66-0.23-29.33-0.08-43.99-0.11c-1.58,0-3.15-0.18-5.49-0.33c3.09-10.23,5.93-19.72,8.83-29.19
		c37.15-121.39,74.33-242.78,111.35-364.21c1.45-4.75,3.36-6.6,8.52-6.5c17.32,0.34,34.66,0.29,51.99,0.02
		c4.6-0.07,6.69,1.26,8.06,5.79c19.34,63.79,38.88,127.53,58.37,191.27c20.22,66.13,40.46,132.26,60.68,198.4
		C452.21,450.09,452.5,451.5,452.99,453.47z M356.35,306.04c-19.18-68.83-38.13-136.84-57.07-204.84c-0.57,0.01-1.15,0.01-1.72,0.02
		c-18.97,68.12-37.95,136.24-57.05,204.83C279.54,306.04,317.45,306.04,356.35,306.04z"/>
	<path class="st0" d="M85.4,626.53c0-46.5,0.06-92.99-0.1-139.49c-0.02-4.53,1.12-6.15,5.83-5.97c8.99,0.35,18,0.32,26.99,0.01
		c4.46-0.16,5.63,1.32,5.61,5.68c-0.16,35.66-0.09,71.33-0.09,106.99c0,6.55,0.02,6.56,6.54,6.56c32.33,0,64.66-0.09,96.99,0.1
		c4.8,0.03,6.24-1.34,6.22-6.16c-0.18-35.66-0.01-71.33-0.2-106.99c-0.02-4.78,1.26-6.39,6.14-6.19c8.98,0.37,18,0.29,26.99,0.02
		c4.18-0.12,5.37,1.29,5.35,5.42c-0.16,28-0.08,55.99-0.08,83.99c0,64.83,0,129.66,0,194.48c0,6.48-0.01,6.48-6.58,6.49
		c-8.83,0-17.67-0.22-26.49,0.09c-4.32,0.15-5.3-1.46-5.29-5.47c0.12-41.5,0.07-82.99,0.07-124.49c0-1.67-0.08-3.34,0-5
		c0.14-2.91-1.01-4.16-4.08-4.16c-33.83,0.07-67.66,0.1-101.49-0.02c-4.55-0.02-4.07,2.76-4.07,5.61c0,27.66,0,55.33,0,82.99
		c0,15-0.17,30,0.1,44.99c0.08,4.53-1.43,5.68-5.73,5.54c-8.82-0.3-17.67-0.34-26.49,0.01c-4.73,0.19-6.25-1.11-6.23-6.05
		C85.47,719.18,85.4,672.86,85.4,626.53z"/>
	<path class="st0" d="M531.41,771.47c-9.47,0-18.41,0-27.35,0c-11.63,0-11.64,0-14.76-11.01c-5.67-19.98-11.42-39.94-16.89-59.98
		c-1.07-3.94-2.82-5.14-6.89-5.12c-30.83,0.18-61.66,0.2-92.49-0.01c-4.44-0.03-6.03,1.58-7.11,5.56
		c-5.93,21.98-12.18,43.87-18.1,65.85c-0.95,3.51-2.33,4.9-6.1,4.8c-9.83-0.27-19.66-0.08-29.5-0.1c-1.43,0-2.86-0.19-4.92-0.34
		c2.5-8.3,4.8-16.05,7.17-23.77c26.6-86.92,53.25-173.84,79.75-260.79c1.22-3.99,2.87-5.59,7.21-5.48c11.99,0.3,24,0.3,35.99,0
		c4.31-0.11,6.02,1.42,7.24,5.45c24.92,81.91,49.99,163.78,75.02,245.65c3.45,11.29,6.89,22.58,10.31,33.87
		C530.45,767.59,530.81,769.18,531.41,771.47z M420.11,515.59c-0.45,0.02-0.89,0.05-1.34,0.07c-0.48,1.35-1.04,2.68-1.42,4.06
		c-12.91,46.2-25.81,92.4-38.68,138.61c-1.84,6.61-1.65,6.82,5.03,6.82c23.8,0.02,47.61,0.02,71.41,0c6.7,0,6.74-0.13,4.88-6.81
		c-9.93-35.65-19.83-71.3-29.77-106.94C426.89,539.45,423.48,527.52,420.11,515.59z"/>
</g>
</svg>
